<?xml version="1.0" encoding="iso-8859-1"?>
<!-- Generator: Adobe Illustrator 16.0.0, SVG Export Plug-In . SVG Version: 6.00 Build 0)  -->
<!DOCTYPE svg PUBLIC "-//W3C//DTD SVG 1.1//EN" "http://www.w3.org/Graphics/SVG/1.1/DTD/svg11.dtd">
<svg version="1.1" id="Capa_1" xmlns="http://www.w3.org/2000/svg" xmlns:xlink="http://www.w3.org/1999/xlink" x="0px" y="0px"
	 width="44px" height="44px" viewBox="0 0 44 44" style="enable-background:new 0 0 44 44;" xml:space="preserve">
<g>
	<g>
		<path d="M35.625,9.243c-0.256-0.106-0.557-0.049-0.752,0.149l-1.32,1.316c-2.824-2.585-6.461-4.002-10.314-4.002
			c-4.085,0-7.927,1.592-10.815,4.481c-2.889,2.889-4.48,6.729-4.48,10.815s1.59,7.928,4.48,10.814
			c2.98,2.982,6.898,4.475,10.815,4.475c3.916,0,7.835-1.491,10.814-4.475c0.914-0.911,0.914-2.392,0-3.303
			c-0.912-0.914-2.391-0.914-3.303,0c-2.008,2.006-4.676,3.11-7.514,3.11c-2.836,0-5.504-1.104-7.512-3.11
			c-4.141-4.143-4.141-10.882,0.002-15.023c2.008-2.006,4.674-3.111,7.512-3.111c2.604,0,5.063,0.932,7.004,2.637l-1.279,1.279
			c-0.197,0.197-0.256,0.493-0.15,0.749c0.107,0.258,0.357,0.425,0.638,0.425h5.903c0.183,0,0.365-0.071,0.494-0.201
			c0.129-0.128,0.211-0.304,0.211-0.485V9.878C36.059,9.6,35.883,9.35,35.625,9.243z"/>
		<g>
			<path d="M35.029,44H8.971C4.024,44,0,39.977,0,35.029V8.971C0,4.024,4.024,0,8.971,0h26.058C39.977,0,44,4.024,44,8.971V35.03
				C44,39.977,39.977,44,35.029,44z M8.971,4C6.229,4,4,6.23,4,8.971V35.03C4,37.77,6.229,40,8.971,40h26.058
				C37.771,40,40,37.77,40,35.029V8.971C40,6.23,37.771,4,35.029,4H8.971z"/>
		</g>
	</g>
</g>
<g>
</g>
<g>
</g>
<g>
</g>
<g>
</g>
<g>
</g>
<g>
</g>
<g>
</g>
<g>
</g>
<g>
</g>
<g>
</g>
<g>
</g>
<g>
</g>
<g>
</g>
<g>
</g>
<g>
</g>
</svg>
